<svg width="165" height="27" viewBox="0 0 165 27" fill="none" xmlns="http://www.w3.org/2000/svg">
<path d="M44.192 9.304C42.464 9.304 41.024 10.048 40.04 11.32V5.224H36.536V22H40.04V20.248C41.024 21.544 42.464 22.288 44.192 22.288C47.504 22.288 49.904 19.6 49.904 15.784C49.904 11.992 47.504 9.304 44.192 9.304ZM43.184 19.336C41.48 19.336 40.232 18.088 40.04 16.264V15.304C40.232 13.504 41.48 12.256 43.184 12.256C45.128 12.256 46.496 13.72 46.496 15.784C46.496 17.872 45.128 19.336 43.184 19.336ZM57.9238 9.304C56.1958 9.304 54.4918 9.784 52.7398 10.672L53.9158 13C54.8998 12.496 55.9798 12.112 57.1318 12.112C59.1718 12.112 59.9878 13.264 59.9878 14.584V14.824C58.9318 14.416 57.8278 14.2 56.8198 14.2C53.9398 14.2 51.6598 15.88 51.6598 18.328C51.6598 20.704 53.6998 22.288 56.3398 22.288C57.6838 22.288 59.0998 21.76 59.9878 20.752V22H63.3718V14.584C63.3718 11.344 61.1638 9.304 57.9238 9.304ZM57.1318 19.864C55.9318 19.864 55.0438 19.24 55.0438 18.232C55.0438 17.224 56.0518 16.48 57.3238 16.48C58.2838 16.48 59.1958 16.648 59.9878 16.936V18.088C59.7478 19.24 58.4758 19.864 57.1318 19.864ZM73.5011 9.304C71.8931 9.304 70.5011 10.024 69.7571 11.152V9.592H66.2531V22H69.7571V14.584L69.7811 14.656C69.7811 13.312 70.9091 12.256 72.3731 12.256C73.7651 12.256 74.7251 13.312 74.7251 14.848V22H78.1091V14.104C78.1091 11.296 76.1891 9.304 73.5011 9.304ZM87.5953 18.928C87.3553 19.168 86.8753 19.336 86.3953 19.336C85.7473 19.336 85.2193 18.76 85.2193 17.944V12.424H87.9073V9.592H85.2193V6.184H81.8593V9.592H80.1553V12.424H81.8593V18.496C81.8593 20.728 83.3953 22.288 85.5793 22.288C86.5872 22.288 87.7153 21.856 88.4353 21.208L87.5953 18.928ZM98.8618 9.592V17.008L98.8378 16.936C98.8378 18.28 97.7098 19.336 96.2458 19.336C94.8538 19.336 93.8938 18.28 93.8938 16.744V9.592H90.5098V17.488C90.5098 20.296 92.4298 22.288 95.1178 22.288C96.7258 22.288 98.1178 21.568 98.8618 20.44V22H102.366V9.592H98.8618Z" fill="#2F7DF1"/>
<path d="M111.9 18.928C111.66 19.168 111.18 19.336 110.7 19.336C110.052 19.336 109.524 18.76 109.524 17.944V12.424H112.212V9.592H109.524V6.184H106.164V9.592H104.46V12.424H106.164V18.496C106.164 20.728 107.7 22.288 109.884 22.288C110.892 22.288 112.02 21.856 112.74 21.208L111.9 18.928ZM120.79 19.192C119.326 19.192 118.246 18.28 117.838 16.936H126.79C126.79 12.256 124.51 9.304 120.622 9.304C116.998 9.304 114.238 12.016 114.238 15.76C114.238 19.576 117.118 22.288 120.814 22.288C122.638 22.288 124.774 21.52 125.878 20.368L123.646 18.088C122.974 18.736 121.774 19.192 120.79 19.192ZM120.766 12.4C122.182 12.4 123.094 13.192 123.43 14.416H117.886C118.342 13.168 119.446 12.4 120.766 12.4ZM143.921 9.304C142.073 9.304 140.537 10.192 139.889 11.56C139.121 10.168 137.657 9.304 135.953 9.304C134.417 9.304 133.193 10.048 132.593 11.224V9.592H129.089V22H132.593V14.512C132.593 13.192 133.577 12.256 134.993 12.256C136.265 12.256 137.177 13.264 137.177 14.704V22.024H140.537V14.512C140.537 13.192 141.545 12.256 142.937 12.256C144.233 12.256 145.145 13.264 145.145 14.704V22.024H148.505V14.104C148.505 11.296 146.513 9.304 143.921 9.304ZM159.682 9.592V17.008L159.658 16.936C159.658 18.28 158.53 19.336 157.066 19.336C155.674 19.336 154.714 18.28 154.714 16.744V9.592H151.33V17.488C151.33 20.296 153.25 22.288 155.938 22.288C157.546 22.288 158.938 21.568 159.682 20.44V22H163.186V9.592H159.682Z" fill="#30D876"/>
<circle cx="13.5" cy="13.5" r="13.5" fill="#2F7DF1"/>
<circle cx="17.5" cy="9.5" r="4.5" fill="white"/>
</svg>
